<svg width="528" height="517" viewBox="0 0 528 517" fill="none" xmlns="http://www.w3.org/2000/svg">
<!-- <path d="M198.084 490.691C200.795 488.568 203.017 486.737 204.75 485.2C206.482 483.663 207.936 482.084 209.11 480.464C210.283 478.814 210.87 477.25 210.87 475.77C210.87 474.875 210.661 474.176 210.241 473.674C209.85 473.168 209.263 472.919 208.481 472.919C207.67 472.919 207.041 473.266 206.594 473.965C206.147 474.637 205.937 475.63 205.965 476.94H198C198.084 474.456 198.629 472.401 199.635 470.781C200.641 469.131 201.955 467.93 203.576 467.175C205.197 466.393 206.999 466 208.984 466C212.421 466 214.979 466.853 216.656 468.557C218.333 470.264 219.171 472.469 219.171 475.181C219.171 478.089 218.193 480.811 216.236 483.357C214.308 485.898 211.89 488.175 208.984 490.188H219.464V496.854H198.084V490.691ZM236.667 481.51C236.667 476.706 237.645 472.919 239.601 470.15C241.558 467.386 244.632 466 248.824 466C253.017 466 256.091 467.386 258.047 470.15C260.032 472.919 261.024 476.706 261.024 481.51C261.024 486.374 260.046 490.188 258.089 492.956C256.133 495.721 253.045 497.107 248.824 497.107C244.604 497.107 241.516 495.721 239.559 492.956C237.631 490.188 236.667 486.374 236.667 481.51ZM252.891 481.51C252.891 478.995 252.625 477.08 252.094 475.77C251.563 474.425 250.473 473.757 248.824 473.757C247.175 473.757 246.085 474.425 245.554 475.77C245.023 477.08 244.758 478.995 244.758 481.51C244.758 484.082 245.009 486.038 245.512 487.379C246.044 488.693 247.147 489.35 248.824 489.35C250.501 489.35 251.591 488.693 252.094 487.379C252.625 486.038 252.891 484.082 252.891 481.51ZM278.431 490.691C281.142 488.568 283.364 486.737 285.097 485.2C286.83 483.663 288.283 482.084 289.457 480.464C290.631 478.814 291.218 477.25 291.218 475.77C291.218 474.875 291.008 474.176 290.589 473.674C290.198 473.168 289.611 472.919 288.828 472.919C288.018 472.919 287.389 473.266 286.942 473.965C286.494 474.637 286.285 475.63 286.313 476.94H278.347C278.431 474.456 278.976 472.401 279.982 470.781C280.989 469.131 282.302 467.93 283.923 467.175C285.544 466.393 287.347 466 289.331 466C292.769 466 295.326 466.853 297.003 468.557C298.68 470.264 299.518 472.469 299.518 475.181C299.518 478.089 298.54 480.811 296.584 483.357C294.655 485.898 292.238 488.175 289.331 490.188H299.812V496.854H278.431V490.691ZM316.763 490.691C319.474 488.568 321.696 486.737 323.429 485.2C325.162 483.663 326.615 482.084 327.789 480.464C328.963 478.814 329.549 477.25 329.549 475.77C329.549 474.875 329.34 474.176 328.921 473.674C328.529 473.168 327.942 472.919 327.16 472.919C326.349 472.919 325.721 473.266 325.273 473.965C324.826 474.637 324.617 475.63 324.645 476.94H316.679C316.763 474.456 317.308 472.401 318.314 470.781C319.32 469.131 320.634 467.93 322.255 467.175C323.876 466.393 325.679 466 327.663 466C331.101 466 333.658 466.853 335.335 468.557C337.012 470.264 337.85 472.469 337.85 475.181C337.85 478.089 336.872 480.811 334.916 483.357C332.987 485.898 330.57 488.175 327.663 490.188H338.144V496.854H316.763V490.691Z" fill="#7BE7FF"/>
<path d="M196.268 494.179C198.979 492.056 201.2 490.225 202.933 488.688C204.666 487.151 206.119 485.572 207.293 483.952C208.467 482.302 209.054 480.738 209.054 479.258C209.054 478.363 208.844 477.664 208.425 477.162C208.034 476.656 207.447 476.407 206.664 476.407C205.854 476.407 205.225 476.754 204.778 477.453C204.331 478.125 204.121 479.118 204.149 480.429H196.184C196.268 477.944 196.813 475.889 197.819 474.269C198.825 472.619 200.138 471.418 201.759 470.663C203.38 469.881 205.183 469.488 207.167 469.488C210.605 469.488 213.162 470.342 214.839 472.045C216.516 473.752 217.355 475.957 217.355 478.669C217.355 481.577 216.377 484.299 214.42 486.845C212.492 489.386 210.074 491.664 207.167 493.676H217.648V500.342H196.268V494.179ZM234.85 484.998C234.85 480.194 235.829 476.407 237.785 473.639C239.741 470.874 242.816 469.488 247.008 469.488C251.2 469.488 254.275 470.874 256.231 473.639C258.215 476.407 259.208 480.194 259.208 484.998C259.208 489.862 258.229 493.676 256.273 496.445C254.317 499.209 251.228 500.595 247.008 500.595C242.788 500.595 239.7 499.209 237.743 496.445C235.815 493.676 234.85 489.862 234.85 484.998ZM251.075 484.998C251.075 482.483 250.809 480.568 250.278 479.258C249.747 477.913 248.657 477.245 247.008 477.245C245.359 477.245 244.269 477.913 243.738 479.258C243.207 480.568 242.942 482.483 242.942 484.998C242.942 487.57 243.193 489.526 243.696 490.867C244.227 492.181 245.331 492.838 247.008 492.838C248.685 492.838 249.775 492.181 250.278 490.867C250.809 489.526 251.075 487.57 251.075 484.998ZM276.615 494.179C279.326 492.056 281.548 490.225 283.281 488.688C285.014 487.151 286.467 485.572 287.641 483.952C288.815 482.302 289.401 480.738 289.401 479.258C289.401 478.363 289.192 477.664 288.773 477.162C288.381 476.656 287.794 476.407 287.012 476.407C286.201 476.407 285.573 476.754 285.125 477.453C284.678 478.125 284.469 479.118 284.496 480.429H276.531C276.615 477.944 277.16 475.889 278.166 474.269C279.172 472.619 280.486 471.418 282.107 470.663C283.728 469.881 285.531 469.488 287.515 469.488C290.953 469.488 293.51 470.342 295.187 472.045C296.864 473.752 297.702 475.957 297.702 478.669C297.702 481.577 296.724 484.299 294.768 486.845C292.839 489.386 290.422 491.664 287.515 493.676H297.996V500.342H276.615V494.179ZM314.947 494.179C317.658 492.056 319.88 490.225 321.612 488.688C323.345 487.151 324.799 485.572 325.972 483.952C327.146 482.302 327.733 480.738 327.733 479.258C327.733 478.363 327.524 477.664 327.104 477.162C326.713 476.656 326.126 476.407 325.344 476.407C324.533 476.407 323.904 476.754 323.457 477.453C323.01 478.125 322.8 479.118 322.828 480.429H314.863C314.947 477.944 315.492 475.889 316.498 474.269C317.504 472.619 318.818 471.418 320.439 470.663C322.06 469.881 323.862 469.488 325.847 469.488C329.284 469.488 331.842 470.342 333.519 472.045C335.195 473.752 336.034 475.957 336.034 478.669C336.034 481.577 335.056 484.299 333.099 486.845C331.171 489.386 328.753 491.664 325.847 493.676H336.327V500.342H314.947V494.179Z" fill="#5D5FEF"/> -->
<!-- <path d="M192.084 493.691C194.795 491.568 197.017 489.737 198.75 488.2C200.482 486.663 201.936 485.084 203.11 483.464C204.283 481.814 204.87 480.25 204.87 478.77C204.87 477.875 204.661 477.176 204.241 476.674C203.85 476.168 203.263 475.919 202.481 475.919C201.67 475.919 201.041 476.266 200.594 476.965C200.147 477.637 199.937 478.63 199.965 479.94H192C192.084 477.456 192.629 475.401 193.635 473.781C194.641 472.131 195.955 470.93 197.576 470.175C199.197 469.393 200.999 469 202.984 469C206.421 469 208.979 469.853 210.656 471.557C212.333 473.264 213.171 475.469 213.171 478.181C213.171 481.089 212.193 483.811 210.236 486.357C208.308 488.898 205.89 491.175 202.984 493.188H213.464V499.854H192.084V493.691ZM230.667 484.51C230.667 479.706 231.645 475.919 233.601 473.15C235.558 470.386 238.632 469 242.824 469C247.017 469 250.091 470.386 252.047 473.15C254.032 475.919 255.024 479.706 255.024 484.51C255.024 489.374 254.046 493.188 252.089 495.956C250.133 498.721 247.045 500.107 242.824 500.107C238.604 500.107 235.516 498.721 233.559 495.956C231.631 493.188 230.667 489.374 230.667 484.51ZM246.891 484.51C246.891 481.995 246.625 480.08 246.094 478.77C245.563 477.425 244.473 476.757 242.824 476.757C241.175 476.757 240.085 477.425 239.554 478.77C239.023 480.08 238.758 481.995 238.758 484.51C238.758 487.082 239.009 489.038 239.512 490.379C240.044 491.693 241.147 492.35 242.824 492.35C244.501 492.35 245.591 491.693 246.094 490.379C246.625 489.038 246.891 487.082 246.891 484.51ZM272.431 493.691C275.142 491.568 277.364 489.737 279.097 488.2C280.83 486.663 282.283 485.084 283.457 483.464C284.631 481.814 285.218 480.25 285.218 478.77C285.218 477.875 285.008 477.176 284.589 476.674C284.198 476.168 283.611 475.919 282.828 475.919C282.018 475.919 281.389 476.266 280.942 476.965C280.494 477.637 280.285 478.63 280.313 479.94H272.347C272.431 477.456 272.976 475.401 273.982 473.781C274.989 472.131 276.302 470.93 277.923 470.175C279.544 469.393 281.347 469 283.331 469C286.769 469 289.326 469.853 291.003 471.557C292.68 473.264 293.518 475.469 293.518 478.181C293.518 481.089 292.54 483.811 290.584 486.357C288.655 488.898 286.238 491.175 283.331 493.188H293.812V499.854H272.431V493.691ZM310.763 493.691C313.474 491.568 315.696 489.737 317.429 488.2C319.162 486.663 320.615 485.084 321.789 483.464C322.963 481.814 323.549 480.25 323.549 478.77C323.549 477.875 323.34 477.176 322.921 476.674C322.529 476.168 321.942 475.919 321.16 475.919C320.349 475.919 319.721 476.266 319.273 476.965C318.826 477.637 318.617 478.63 318.645 479.94H310.679C310.763 477.456 311.308 475.401 312.314 473.781C313.32 472.131 314.634 470.93 316.255 470.175C317.876 469.393 319.679 469 321.663 469C325.101 469 327.658 469.853 329.335 471.557C331.012 473.264 331.85 475.469 331.85 478.181C331.85 481.089 330.872 483.811 328.916 486.357C326.987 488.898 324.57 491.175 321.663 493.188H332.144V499.854H310.763V493.691Z" fill="white"/> -->
<!-- <path id="2023" d="M3.663 103.573C10.841 97.949 16.724 93.102 21.312 89.032C25.9 84.962 29.748 80.781 32.856 76.489C35.964 72.123 37.518 67.979 37.518 64.057C37.518 61.689 36.963 59.839 35.853 58.507C34.817 57.175 33.263 56.509 31.191 56.509C29.045 56.509 27.38 57.434 26.196 59.284C25.012 61.06 24.457 63.687 24.531 67.165H3.441C3.663 60.579 5.106 55.14 7.77 50.848C10.434 46.482 13.912 43.3 18.204 41.302C22.496 39.23 27.269 38.194 32.523 38.194C41.625 38.194 48.396 40.451 52.836 44.965C57.276 49.479 59.496 55.325 59.496 62.503C59.496 70.199 56.906 77.414 51.726 84.148C46.62 90.882 40.219 96.913 32.523 102.241H60.273V119.89H3.663V103.573ZM105.82 79.264C105.82 66.536 108.41 56.509 113.59 49.183C118.77 41.857 126.91 38.194 138.01 38.194C149.11 38.194 157.25 41.857 162.43 49.183C167.684 56.509 170.311 66.536 170.311 79.264C170.311 92.14 167.721 102.241 162.541 109.567C157.361 116.893 149.184 120.556 138.01 120.556C126.836 120.556 118.659 116.893 113.479 109.567C108.373 102.241 105.82 92.14 105.82 79.264ZM148.777 79.264C148.777 72.604 148.074 67.535 146.668 64.057C145.262 60.505 142.376 58.729 138.01 58.729C133.644 58.729 130.758 60.505 129.352 64.057C127.946 67.535 127.243 72.604 127.243 79.264C127.243 86.072 127.909 91.252 129.241 94.804C130.647 98.282 133.57 100.021 138.01 100.021C142.45 100.021 145.336 98.282 146.668 94.804C148.074 91.252 148.777 86.072 148.777 79.264ZM216.401 103.573C223.579 97.949 229.462 93.102 234.05 89.032C238.638 84.962 242.486 80.781 245.594 76.489C248.702 72.123 250.256 67.979 250.256 64.057C250.256 61.689 249.701 59.839 248.591 58.507C247.555 57.175 246.001 56.509 243.929 56.509C241.783 56.509 240.118 57.434 238.934 59.284C237.75 61.06 237.195 63.687 237.269 67.165H216.179C216.401 60.579 217.844 55.14 220.508 50.848C223.172 46.482 226.65 43.3 230.942 41.302C235.234 39.23 240.007 38.194 245.261 38.194C254.363 38.194 261.134 40.451 265.574 44.965C270.014 49.479 272.234 55.325 272.234 62.503C272.234 70.199 269.644 77.414 264.464 84.148C259.358 90.882 252.957 96.913 245.261 102.241H273.011V119.89H216.401V103.573ZM319.558 64.057C319.854 55.695 322.444 49.294 327.328 44.854C332.212 40.34 339.02 38.083 347.752 38.083C353.45 38.083 358.297 39.082 362.293 41.08C366.363 43.004 369.434 45.668 371.506 49.072C373.578 52.402 374.614 56.176 374.614 60.394C374.614 65.426 373.393 69.459 370.951 72.493C368.509 75.453 365.734 77.451 362.626 78.487V78.931C371.58 82.261 376.057 88.625 376.057 98.023C376.057 102.685 374.984 106.792 372.838 110.344C370.692 113.896 367.584 116.671 363.514 118.669C359.444 120.667 354.597 121.666 348.973 121.666C339.723 121.666 332.397 119.446 326.995 115.006C321.667 110.492 318.892 103.61 318.67 94.36H339.871C339.723 97.32 340.352 99.614 341.758 101.242C343.164 102.87 345.273 103.684 348.085 103.684C350.231 103.684 351.896 103.018 353.08 101.686C354.338 100.354 354.967 98.578 354.967 96.358C354.967 93.546 354.042 91.474 352.192 90.142C350.416 88.81 347.493 88.144 343.423 88.144H339.538V70.495H343.312C346.124 70.569 348.492 70.125 350.416 69.163C352.414 68.127 353.413 66.092 353.413 63.058C353.413 60.764 352.858 59.062 351.748 57.952C350.638 56.768 349.121 56.176 347.197 56.176C345.051 56.176 343.46 56.953 342.424 58.507C341.462 59.987 340.907 61.837 340.759 64.057H319.558Z" fill="white"/> -->
<path d="M88.6048 418.516L117.22 398.678L125.88 406.337L115.641 424.94L132.923 412.561L141.584 420.219L125.33 450.983L117.712 444.249L130.079 424.324L110.777 438.116L103.05 431.285L114.356 410.68L96.2227 425.25L88.6048 418.516Z" fill="#7BE7FF"/>
<path d="M58.9892 380.446L88.124 363.283L92.8964 371.382L63.7616 388.546L58.9892 380.446Z" fill="#7BE7FF"/>
<path d="M66.465 311.797L69.0956 320.823L54.4551 338.128L72.5986 332.84L75.2295 341.865L42.7645 351.327L40.1338 342.302L55.0046 324.929L36.6307 330.284L34.0001 321.259L66.465 311.797Z" fill="#7BE7FF"/>
<path d="M25.8245 246.48L33.3044 246.685L33.0572 255.699L59.3805 256.421L59.1226 265.817L32.7994 265.096L32.5548 274.013L25.075 273.808L25.8245 246.48Z" fill="#7BE7FF"/>
<path d="M40.3824 199.53L45.6661 201.114L48.7661 190.778L55.612 192.83L52.5116 203.167L58.3464 204.917L61.86 193.202L69.0733 195.365L62.8589 216.084L30.4685 206.371L36.6829 185.652L43.8959 187.815L40.3824 199.53Z" fill="#7BE7FF"/>
<path d="M88.9047 151.259L74.7782 150.224L74.2374 151.074L84.7562 157.772L79.7059 165.701L51.1837 147.537L59.1452 135.037C60.6053 132.745 62.2467 131.061 64.0694 129.985C65.8653 128.892 67.722 128.387 69.6399 128.471C71.5305 128.538 73.3393 129.121 75.0653 130.221C77.0073 131.457 78.3764 133.087 79.1726 135.111C79.9593 137.09 80.0099 139.302 79.3248 141.747L94.5473 142.4L88.9047 151.259ZM68.8161 147.621L71.3153 143.697C72.0023 142.618 72.2614 141.646 72.0925 140.78C71.9237 139.915 71.3538 139.173 70.3828 138.554C69.4657 137.97 68.5706 137.798 67.6974 138.038C66.8144 138.234 66.0379 138.858 65.3683 139.91L62.8688 143.834L68.8161 147.621Z" fill="#7BE7FF"/>
<path d="M175.886 31.1807L185.301 64.6994L175.238 70.3872L160.991 54.6389L167.053 75.0126L156.99 80.7004L133.21 55.2998L142.062 50.2967L156.863 68.4865L150.121 45.7419L159.099 40.6678L174.891 58.077L167.033 36.184L175.886 31.1807Z" fill="#7BE7FF"/>
<path d="M235.106 53.0528C231.956 53.3662 228.987 52.9225 226.201 51.7219C223.411 50.4893 221.106 48.646 219.287 46.192C217.497 43.7033 216.437 40.8045 216.108 37.4955C215.779 34.1866 216.248 31.1516 217.516 28.3906C218.812 25.5946 220.708 23.3334 223.203 21.607C225.699 19.8806 228.521 18.8607 231.672 18.5472C234.854 18.2306 237.822 18.6742 240.577 19.8782C243.364 21.0789 245.652 22.9237 247.442 25.4126C249.229 27.8696 250.288 30.7525 250.617 34.0616C250.946 37.3705 250.479 40.4212 249.214 43.2143C247.946 45.9753 246.066 48.2347 243.574 49.9931C241.079 51.7193 238.256 52.7393 235.106 53.0528ZM234.241 44.3669C236.628 44.1293 238.428 43.1629 239.641 41.4677C240.886 39.7694 241.378 37.6156 241.119 35.0068C240.853 32.334 239.944 30.3038 238.391 28.9159C236.868 27.493 234.913 26.9003 232.527 27.1378C230.108 27.3785 228.293 28.3464 227.079 30.0416C225.863 31.7049 225.388 33.8728 225.654 36.5454C225.917 39.1863 226.81 41.2184 228.333 42.641C229.854 44.0323 231.823 44.6074 234.241 44.3669Z" fill="#7BE7FF"/>
<path d="M322.557 58.1503L313.449 55.8202L306.006 34.4102L301.321 52.7171L292.213 50.3866L300.596 17.6295L309.704 19.9597L317.088 41.6021L321.832 23.0628L330.94 25.3931L322.557 58.1503Z" fill="#7BE7FF"/>
<path d="M390.87 50.7156C393.819 52.6907 395.995 55.0143 397.4 57.6866C398.85 60.3501 399.462 63.1447 399.232 66.0707C399.005 68.9967 397.974 71.828 396.142 74.564C394.326 77.274 392.097 79.2824 389.45 80.5894C386.832 81.9138 383.996 82.4399 380.946 82.1676C377.941 81.8862 374.976 80.7669 372.054 78.8099L360.935 71.3638L379.752 43.2695L390.87 50.7156ZM376.073 71.5156C378.358 73.0455 380.57 73.6222 382.708 73.2457C384.846 72.8688 386.681 71.5379 388.211 69.2532C389.759 66.942 390.299 64.7259 389.835 62.6054C389.385 60.4585 388.022 58.6201 385.737 57.0899L383.025 55.2749L373.363 69.7007L376.073 71.5156Z" fill="#7BE7FF"/>
<path d="M441.642 102.587L437.381 106.09L444.236 114.425L438.715 118.964L431.86 110.629L427.154 114.497L434.923 123.944L429.106 128.726L415.366 112.018L441.487 90.5434L455.227 107.251L449.411 112.034L441.642 102.587Z" fill="#7BE7FF"/>
<path d="M454.672 169.775L463.407 158.625L463.003 157.702L451.578 162.7L447.809 154.088L478.79 140.535L484.731 154.112C485.819 156.602 486.303 158.904 486.182 161.016C486.087 163.116 485.472 164.939 484.331 166.484C483.224 168.017 481.729 169.193 479.855 170.013C477.748 170.936 475.629 171.164 473.507 170.697C471.422 170.247 469.56 169.056 467.909 167.124L458.883 179.398L454.672 169.775ZM468.891 155.126L470.757 159.388C471.267 160.56 471.932 161.317 472.744 161.659C473.556 162.002 474.492 161.942 475.546 161.481C476.543 161.045 477.185 160.398 477.472 159.539C477.801 158.697 477.714 157.705 477.215 156.562L475.35 152.3L468.891 155.126Z" fill="#7BE7FF"/>
<path d="M507.43 239.447L473.767 242.644L472.876 233.285L486.389 232.002L485.305 220.591L471.792 221.874L470.904 212.516L504.571 209.319L505.459 218.678L492.802 219.879L493.886 231.291L506.543 230.089L507.43 239.447Z" fill="#7BE7FF"/>
<path d="M474.719 304.529L477.608 292.891L472.695 289.794L475.074 280.205L504.922 300.312L502.312 310.832L466.535 314.605L468.925 304.969L474.719 304.529ZM482.269 303.98L493.762 303.076L484.014 296.951L482.269 303.98Z" fill="#7BE7FF"/>
<path d="M469.322 358.687C472.094 360.522 474.183 362.727 475.584 365.303C476.996 367.923 477.593 370.697 477.382 373.624C477.197 376.567 476.188 379.426 474.353 382.202C472.022 385.721 469.118 388.055 465.636 389.199C462.18 390.366 458.611 390.227 454.925 388.788L460.511 380.347C461.912 380.544 463.192 380.378 464.355 379.841C465.496 379.332 466.455 378.489 467.233 377.319C468.431 375.502 468.74 373.618 468.155 371.66C467.581 369.747 466.214 368.075 464.057 366.646C461.87 365.2 459.77 364.577 457.757 364.779C455.752 365.025 454.15 366.055 452.949 367.868C452.175 369.042 451.775 370.254 451.752 371.504C451.714 372.781 452.058 374.026 452.791 375.238L447.205 383.678C444.436 380.85 442.899 377.609 442.597 373.958C442.318 370.322 443.341 366.745 445.671 363.224C447.507 360.451 449.732 358.395 452.341 357.056C454.981 355.734 457.769 355.202 460.703 355.457C463.649 355.758 466.523 356.834 469.322 358.687Z" fill="#7BE7FF"/>
<path d="M396.682 419.861L414.09 425.246L405.123 413.448L412.605 407.757L433.072 434.676L425.586 440.363L416.764 428.758L417.224 446.719L408.594 453.279L408.557 432.704L387.633 426.741L396.682 419.861Z" fill="#7BE7FF"/>
<path d="M87.8923 422.516L116.507 402.678L125.168 410.337L114.928 428.94L132.211 416.561L140.871 424.219L124.618 454.983L117 448.249L129.366 428.324L110.064 442.116L102.338 435.285L113.643 414.68L95.5102 429.25L87.8923 422.516Z" fill="#5D5FEF"/>
<path d="M58.2768 384.446L87.4116 367.283L92.184 375.382L63.0492 392.546L58.2768 384.446Z" fill="#5D5FEF"/>
<path d="M65.7526 315.797L68.3832 324.823L53.7427 342.128L71.8862 336.84L74.5171 345.865L42.0519 355.327L39.4214 346.302L54.2922 328.929L35.9183 334.284L33.2877 325.259L65.7526 315.797Z" fill="#5D5FEF"/>
<path d="M25.1121 250.48L32.5919 250.685L32.3447 259.699L58.6681 260.421L58.4101 269.817L32.0869 269.096L31.8423 278.013L24.3625 277.808L25.1121 250.48Z" fill="#5D5FEF"/>
<path d="M39.6699 203.53L44.9537 205.114L48.0537 194.778L54.8995 196.83L51.7992 207.167L57.634 208.917L61.1475 197.202L68.3609 199.365L62.1465 220.084L29.7561 210.371L35.9704 189.652L43.1835 191.815L39.6699 203.53Z" fill="#5D5FEF"/>
<path d="M88.1922 155.259L74.0658 154.224L73.5249 155.074L84.0438 161.772L78.9934 169.701L50.4712 151.537L58.4327 139.037C59.8929 136.745 61.5343 135.061 63.357 133.985C65.1528 132.892 67.0095 132.387 68.9274 132.471C70.8181 132.538 72.6268 133.121 74.3528 134.221C76.2948 135.457 77.6639 137.087 78.4601 139.111C79.2468 141.09 79.2974 143.302 78.6123 145.747L93.8348 146.4L88.1922 155.259ZM68.1037 151.621L70.6028 147.697C71.2898 146.618 71.5489 145.646 71.3801 144.78C71.2112 143.915 70.6413 143.173 69.6703 142.554C68.7533 141.97 67.8582 141.798 66.985 142.038C66.102 142.234 65.3254 142.858 64.6558 143.91L62.1563 147.834L68.1037 151.621Z" fill="#5D5FEF"/>
<path d="M175.173 35.1807L184.589 68.6994L174.525 74.3872L160.279 58.6389L166.341 79.0126L156.277 84.7004L132.497 59.2998L141.35 54.2967L156.15 72.4865L149.409 49.7419L158.387 44.6678L174.178 62.077L166.321 40.184L175.173 35.1807Z" fill="#5D5FEF"/>
<path d="M234.393 57.0528C231.243 57.3662 228.275 56.9225 225.488 55.7219C222.698 54.4893 220.394 52.646 218.575 50.192C216.785 47.7033 215.725 44.8045 215.396 41.4955C215.066 38.1866 215.535 35.1516 216.803 32.3906C218.1 29.5946 219.995 27.3334 222.491 25.607C224.986 23.8806 227.809 22.8607 230.959 22.5472C234.141 22.2306 237.109 22.6742 239.865 23.8782C242.651 25.0789 244.94 26.9237 246.73 29.4126C248.517 31.8696 249.575 34.7525 249.905 38.0616C250.234 41.3705 249.766 44.4212 248.501 47.2143C247.234 49.9753 245.354 52.2347 242.862 53.9931C240.367 55.7193 237.544 56.7393 234.393 57.0528ZM233.529 48.3669C235.916 48.1293 237.715 47.1629 238.928 45.4677C240.173 43.7694 240.666 41.6156 240.406 39.0068C240.14 36.334 239.231 34.3038 237.679 32.9159C236.156 31.493 234.2 30.9003 231.814 31.1378C229.396 31.3785 227.58 32.3464 226.367 34.0416C225.151 35.7049 224.676 37.8728 224.942 40.5454C225.204 43.1863 226.098 45.2184 227.621 46.641C229.141 48.0323 231.111 48.6074 233.529 48.3669Z" fill="#5D5FEF"/>
<path d="M321.845 62.1503L312.737 59.8202L305.294 38.4102L300.609 56.7171L291.501 54.3866L299.884 21.6295L308.991 23.9597L316.375 45.6021L321.12 27.0628L330.228 29.3931L321.845 62.1503Z" fill="#5D5FEF"/>
<path d="M390.157 54.7156C393.107 56.6907 395.282 59.0143 396.687 61.6866C398.138 64.3501 398.75 67.1447 398.519 70.0707C398.293 72.9967 397.261 75.828 395.43 78.564C393.613 81.274 391.385 83.2824 388.737 84.5894C386.12 85.9138 383.283 86.4399 380.236 86.1676C377.228 85.8862 374.264 84.7669 371.341 82.8099L360.222 75.3638L379.038 47.2695L390.157 54.7156ZM375.361 75.5156C377.646 77.0455 379.858 77.6222 381.996 77.2457C384.133 76.8688 385.969 75.5379 387.498 73.2532C389.047 70.942 389.587 68.7259 389.122 66.6054C388.673 64.4585 387.31 62.6201 385.025 61.0899L382.313 59.2749L372.651 73.7007L375.361 75.5156Z" fill="#5D5FEF"/>
<path d="M440.929 106.587L436.669 110.09L443.524 118.425L438.002 122.964L431.147 114.629L426.441 118.497L434.21 127.944L428.394 132.726L414.654 116.018L440.774 94.5434L454.514 111.251L448.698 116.034L440.929 106.587Z" fill="#5D5FEF"/>
<path d="M453.959 173.775L462.695 162.625L462.291 161.702L450.866 166.7L447.097 158.088L478.078 144.535L484.019 158.112C485.107 160.602 485.59 162.904 485.469 165.016C485.375 167.116 484.759 168.939 483.619 170.484C482.512 172.017 481.016 173.193 479.143 174.013C477.036 174.936 474.917 175.164 472.794 174.697C470.709 174.247 468.847 173.056 467.197 171.124L458.17 183.398L453.959 173.775ZM468.179 159.126L470.045 163.388C470.555 164.56 471.219 165.317 472.031 165.659C472.843 166.002 473.78 165.942 474.834 165.481C475.831 165.045 476.473 164.398 476.76 163.539C477.088 162.697 477.002 161.705 476.503 160.562L474.637 156.3L468.179 159.126Z" fill="#5D5FEF"/>
<path d="M506.718 243.447L473.055 246.644L472.163 237.285L485.677 236.002L484.593 224.591L471.079 225.874L470.192 216.516L503.858 213.319L504.746 222.678L492.09 223.879L493.174 235.291L505.83 234.089L506.718 243.447Z" fill="#5D5FEF"/>
<path d="M474.007 308.529L476.896 296.891L471.982 293.794L474.362 284.205L504.21 304.312L501.6 314.832L465.822 318.605L468.213 308.969L474.007 308.529ZM481.556 307.98L493.049 307.076L483.301 300.951L481.556 307.98Z" fill="#5D5FEF"/>
<path d="M468.609 362.687C471.382 364.522 473.47 366.727 474.871 369.303C476.284 371.923 476.881 374.697 476.669 377.624C476.484 380.567 475.476 383.426 473.64 386.202C471.31 389.721 468.406 392.055 464.923 393.199C461.467 394.366 457.898 394.227 454.212 392.788L459.798 384.347C461.199 384.544 462.48 384.378 463.643 383.841C464.784 383.332 465.743 382.489 466.521 381.319C467.718 379.502 468.028 377.618 467.442 375.66C466.868 373.747 465.501 372.075 463.345 370.646C461.158 369.2 459.058 368.577 457.045 368.779C455.039 369.025 453.438 370.055 452.237 371.868C451.463 373.042 451.062 374.254 451.04 375.504C451.002 376.781 451.346 378.026 452.078 379.238L446.492 387.678C443.724 384.85 442.187 381.609 441.885 377.958C441.605 374.322 442.629 370.745 444.959 367.224C446.794 364.451 449.019 362.395 451.629 361.056C454.269 359.734 457.056 359.202 459.991 359.457C462.937 359.758 465.811 360.834 468.609 362.687Z" fill="#5D5FEF"/>
<path d="M395.97 423.861L413.377 429.246L404.411 417.448L411.893 411.757L432.359 438.676L424.874 444.363L416.051 432.758L416.512 450.719L407.882 457.279L407.844 436.704L386.921 430.741L395.97 423.861Z" fill="#5D5FEF"/>
<path d="M82.6048 422.516L111.22 402.678L119.88 410.337L109.641 428.94L126.923 416.561L135.584 424.219L119.33 454.983L111.712 448.249L124.079 428.324L104.777 442.116L97.0504 435.285L108.356 414.68L90.2227 429.25L82.6048 422.516Z" fill="#F5F5F5"/>
<path d="M52.9892 384.446L82.124 367.283L86.8964 375.382L57.7616 392.546L52.9892 384.446Z" fill="#F5F5F5"/>
<path d="M60.465 315.797L63.0956 324.823L48.4551 342.128L66.5986 336.84L69.2295 345.865L36.7645 355.327L34.1338 346.302L49.0046 328.929L30.6307 334.284L28.0001 325.259L60.465 315.797Z" fill="#F5F5F5"/>
<path d="M19.8245 250.48L27.3044 250.685L27.0572 259.699L53.3805 260.421L53.1226 269.817L26.7994 269.096L26.5548 278.013L19.075 277.808L19.8245 250.48Z" fill="#F5F5F5"/>
<path d="M34.3824 203.53L39.6661 205.114L42.7661 194.778L49.612 196.83L46.5116 207.167L52.3464 208.917L55.86 197.202L63.0733 199.365L56.8589 220.084L24.4685 210.371L30.6829 189.652L37.8959 191.815L34.3824 203.53Z" fill="#F5F5F5"/>
<path d="M82.9047 155.259L68.7782 154.224L68.2374 155.074L78.7562 161.772L73.7059 169.701L45.1837 151.537L53.1452 139.037C54.6053 136.745 56.2467 135.061 58.0694 133.985C59.8653 132.892 61.722 132.387 63.6399 132.471C65.5305 132.538 67.3393 133.121 69.0653 134.221C71.0073 135.457 72.3764 137.087 73.1726 139.111C73.9593 141.09 74.0099 143.302 73.3248 145.747L88.5473 146.4L82.9047 155.259ZM62.8161 151.621L65.3153 147.697C66.0023 146.618 66.2614 145.646 66.0925 144.78C65.9237 143.915 65.3538 143.173 64.3828 142.554C63.4657 141.97 62.5706 141.798 61.6974 142.038C60.8144 142.234 60.0379 142.858 59.3683 143.91L56.8688 147.834L62.8161 151.621Z" fill="#F5F5F5"/>
<path d="M169.886 35.1807L179.301 68.6994L169.238 74.3872L154.991 58.6389L161.053 79.0126L150.99 84.7004L127.21 59.2998L136.062 54.2967L150.863 72.4865L144.121 49.7419L153.099 44.6678L168.891 62.077L161.033 40.184L169.886 35.1807Z" fill="#F5F5F5"/>
<path d="M229.106 57.0528C225.956 57.3662 222.987 56.9225 220.201 55.7219C217.411 54.4893 215.106 52.646 213.287 50.192C211.497 47.7033 210.437 44.8045 210.108 41.4955C209.779 38.1866 210.248 35.1516 211.516 32.3906C212.812 29.5946 214.708 27.3334 217.203 25.607C219.699 23.8806 222.521 22.8607 225.672 22.5472C228.854 22.2306 231.822 22.6742 234.577 23.8782C237.364 25.0789 239.652 26.9237 241.442 29.4126C243.229 31.8696 244.288 34.7525 244.617 38.0616C244.946 41.3705 244.479 44.4212 243.214 47.2143C241.946 49.9753 240.066 52.2347 237.574 53.9931C235.079 55.7193 232.256 56.7393 229.106 57.0528ZM228.241 48.3669C230.628 48.1293 232.428 47.1629 233.641 45.4677C234.886 43.7694 235.378 41.6156 235.119 39.0068C234.853 36.334 233.944 34.3038 232.391 32.9159C230.868 31.493 228.913 30.9003 226.527 31.1378C224.108 31.3785 222.293 32.3464 221.079 34.0416C219.863 35.7049 219.388 37.8728 219.654 40.5454C219.917 43.1863 220.81 45.2184 222.333 46.641C223.854 48.0323 225.823 48.6074 228.241 48.3669Z" fill="#F5F5F5"/>
<path d="M316.557 62.1503L307.449 59.8202L300.006 38.4102L295.321 56.7171L286.213 54.3866L294.596 21.6295L303.704 23.9597L311.088 45.6021L315.832 27.0628L324.94 29.3931L316.557 62.1503Z" fill="#F5F5F5"/>
<path d="M384.87 54.7156C387.819 56.6907 389.995 59.0143 391.4 61.6866C392.85 64.3501 393.462 67.1447 393.232 70.0707C393.005 72.9967 391.974 75.828 390.142 78.564C388.326 81.274 386.097 83.2824 383.45 84.5894C380.832 85.9138 377.996 86.4399 374.946 86.1676C371.941 85.8862 368.976 84.7669 366.054 82.8099L354.935 75.3638L373.752 47.2695L384.87 54.7156ZM370.073 75.5156C372.358 77.0455 374.57 77.6222 376.708 77.2457C378.846 76.8688 380.681 75.5379 382.211 73.2532C383.759 70.942 384.299 68.7259 383.835 66.6054C383.385 64.4585 382.022 62.6201 379.737 61.0899L377.025 59.2749L367.363 73.7007L370.073 75.5156Z" fill="#F5F5F5"/>
<path d="M435.642 106.587L431.381 110.09L438.236 118.425L432.715 122.964L425.86 114.629L421.154 118.497L428.923 127.944L423.106 132.726L409.366 116.018L435.487 94.5434L449.227 111.251L443.411 116.034L435.642 106.587Z" fill="#F5F5F5"/>
<path d="M448.672 173.775L457.407 162.625L457.003 161.702L445.578 166.7L441.809 158.088L472.79 144.535L478.731 158.112C479.819 160.602 480.303 162.904 480.182 165.016C480.087 167.116 479.472 168.939 478.331 170.484C477.224 172.017 475.729 173.193 473.855 174.013C471.748 174.936 469.629 175.164 467.507 174.697C465.422 174.247 463.56 173.056 461.909 171.124L452.883 183.398L448.672 173.775ZM462.891 159.126L464.757 163.388C465.267 164.56 465.932 165.317 466.744 165.659C467.556 166.002 468.492 165.942 469.546 165.481C470.543 165.045 471.185 164.398 471.472 163.539C471.801 162.697 471.714 161.705 471.215 160.562L469.35 156.3L462.891 159.126Z" fill="#F5F5F5"/>
<path d="M501.43 243.447L467.767 246.644L466.876 237.285L480.389 236.002L479.305 224.591L465.792 225.874L464.904 216.516L498.571 213.319L499.459 222.678L486.802 223.879L487.886 235.291L500.543 234.089L501.43 243.447Z" fill="#F5F5F5"/>
<path d="M468.719 308.529L471.608 296.891L466.695 293.794L469.074 284.205L498.922 304.312L496.312 314.832L460.535 318.605L462.925 308.969L468.719 308.529ZM476.269 307.98L487.762 307.076L478.014 300.951L476.269 307.98Z" fill="#F5F5F5"/>
<path d="M463.322 362.687C466.094 364.522 468.183 366.727 469.584 369.303C470.996 371.923 471.593 374.697 471.382 377.624C471.197 380.567 470.188 383.426 468.353 386.202C466.022 389.721 463.118 392.055 459.636 393.199C456.18 394.366 452.611 394.227 448.925 392.788L454.511 384.347C455.912 384.544 457.192 384.378 458.355 383.841C459.496 383.332 460.455 382.489 461.233 381.319C462.431 379.502 462.74 377.618 462.155 375.66C461.581 373.747 460.214 372.075 458.057 370.646C455.87 369.2 453.77 368.577 451.757 368.779C449.752 369.025 448.15 370.055 446.949 371.868C446.175 373.042 445.775 374.254 445.752 375.504C445.714 376.781 446.058 378.026 446.791 379.238L441.205 387.678C438.436 384.85 436.899 381.609 436.597 377.958C436.318 374.322 437.341 370.745 439.671 367.224C441.507 364.451 443.732 362.395 446.341 361.056C448.981 359.734 451.769 359.202 454.703 359.457C457.649 359.758 460.523 360.834 463.322 362.687Z" fill="#F5F5F5"/>
<path d="M390.682 423.861L408.09 429.246L399.123 417.448L406.605 411.757L427.072 438.676L419.586 444.363L410.764 432.758L411.224 450.719L402.594 457.279L402.557 436.704L381.633 430.741L390.682 423.861Z" fill="#F5F5F5"/>
<path d="M124.724 270.882L98.9528 286.557L141.531 312.311L106.796 334.705L121.362 358.219L184.109 321.268V305.593L124.724 270.882Z" fill="#5D5FEF"/>
<path d="M158.338 358.219V389.57L225.566 350.381L202.036 334.705L158.338 358.219Z" fill="#5D5FEF"/>
<path d="M124.724 270.882L98.9528 286.557L141.531 312.311L106.796 334.705L121.362 358.219L184.109 321.268V305.593L124.724 270.882Z" stroke="#5D5FEF"/>
<path d="M158.338 358.219V389.57L225.566 350.381L202.036 334.705L158.338 358.219Z" stroke="#5D5FEF"/>
<path d="M250.471 85.7261H277.906V126.633L322.9 102.31V132.161L265.835 166.435L206.574 132.161V102.31L250.471 126.633V85.7261Z" fill="#5D5FEF" stroke="#5D5FEF"/>
<path d="M121.679 160.371L109.291 183.821L145.327 203.92L99.156 231.836L127.309 246.352L172.355 220.67L186.994 198.337V144.738L159.967 126.872V180.47L121.679 160.371Z" fill="#5D5FEF" stroke="#5D5FEF"/>
<path d="M406.877 159.304L419.152 182.909L383.442 203.142L429.195 231.242L401.295 245.855L356.657 220.002L342.149 197.522V143.568L368.933 125.583V179.537L406.877 159.304Z" fill="#5D5FEF" stroke="#5D5FEF"/>
<path d="M403.962 269.299L429.731 284.975L387.151 310.728L421.886 333.122L407.323 356.636L344.575 319.686V304.01L403.962 269.299Z" fill="#5D5FEF"/>
<path d="M370.346 356.636V387.988L303.117 348.798L326.647 333.122L370.346 356.636Z" fill="#5D5FEF"/>
<path d="M403.962 269.299L429.731 284.975L387.151 310.728L421.886 333.122L407.323 356.636L344.575 319.686V304.01L403.962 269.299Z" stroke="#5D5FEF"/>
<path d="M370.346 356.636V387.988L303.117 348.798L326.647 333.122L370.346 356.636Z" stroke="#5D5FEF"/>
<path d="M204.2 188.032V154.566L265.692 188.032L326.066 154.566V188.032L265.692 222.614L204.2 188.032Z" fill="#5D5FEF" stroke="#5D5FEF"/>
<path d="M203.409 260.037V226.571L264.901 260.037L325.274 226.571V260.037L264.901 294.619L203.409 260.037Z" fill="#5D5FEF" stroke="#5D5FEF"/>
<path d="M251.367 341.212L264.804 317.566L279.362 341.212V359.229L325.274 386.255V418.91L279.362 390.756V434.673H251.367V390.756L206.574 418.91V386.255L251.367 359.229V341.212Z" fill="#5D5FEF" stroke="#5D5FEF"/>
<path d="M232.987 225.73L185.955 198.877L172.517 220.135L204.992 239.157V261.535L172.517 242.513L145.641 258.178L204.992 292.864V318.598L250.904 342.095L264.342 318.598L232.987 300.696V225.73Z" fill="#5D5FEF" stroke="#5D5FEF"/>
<path d="M296.488 225.73L343.52 198.877L356.958 220.135L324.483 239.157V261.535L356.958 242.513L383.835 258.178L324.483 292.864V318.598L278.571 342.095L265.133 318.598L296.488 300.696V225.73Z" fill="#5D5FEF" stroke="#5D5FEF"/>
<path d="M204.2 312.027H225.566V350.799H201.43L204.2 312.027Z" fill="#5D5FEF"/>
<path d="M325.275 309.653H303.909V348.425H325.275V309.653Z" fill="#5D5FEF"/>
<path d="M126.771 275.156L101 290.831L143.578 316.585L108.843 338.979L123.409 362.493L186.156 325.542V309.867L126.771 275.156Z" fill="#7BE7FF"/>
<path d="M160.385 362.493V393.844L227.614 354.655L204.084 338.979L160.385 362.493Z" fill="#7BE7FF"/>
<path d="M126.771 275.156L101 290.831L143.578 316.585L108.843 338.979L123.409 362.493L186.156 325.542V309.867L126.771 275.156Z" stroke="#7BE7FF"/>
<path d="M160.385 362.493V393.844L227.614 354.655L204.084 338.979L160.385 362.493Z" stroke="#7BE7FF"/>
<path d="M252.518 90H279.954V130.907L324.948 106.584V136.435L267.882 170.709L208.621 136.435V106.584L252.518 130.907V90Z" fill="#7BE7FF" stroke="#7BE7FF"/>
<path d="M123.726 164.645L111.338 188.094L147.375 208.194L101.203 236.11L129.356 250.626L174.402 224.943L189.042 202.611V149.012L162.014 131.146V184.744L123.726 164.645Z" fill="#7BE7FF" stroke="#7BE7FF"/>
<path d="M408.925 163.578L421.199 187.183L385.489 207.416L431.242 235.516L403.342 250.129L358.704 224.276L344.196 201.795V147.842L370.98 129.857V183.811L408.925 163.578Z" fill="#7BE7FF" stroke="#7BE7FF"/>
<path d="M406.009 273.573L431.778 289.249L389.198 315.002L423.934 337.396L409.37 360.91L346.622 323.96V308.284L406.009 273.573Z" fill="#7BE7FF"/>
<path d="M372.393 360.91V392.262L305.165 353.072L328.694 337.396L372.393 360.91Z" fill="#7BE7FF"/>
<path d="M406.009 273.573L431.778 289.249L389.198 315.002L423.934 337.396L409.37 360.91L346.622 323.96V308.284L406.009 273.573Z" stroke="#7BE7FF"/>
<path d="M372.393 360.91V392.262L305.165 353.072L328.694 337.396L372.393 360.91Z" stroke="#7BE7FF"/>
<path d="M206.248 192.306V158.84L267.739 192.306L328.113 158.84V192.306L267.739 226.888L206.248 192.306Z" fill="#7BE7FF" stroke="#7BE7FF"/>
<path d="M205.456 264.311V230.845L266.948 264.311L327.322 230.845V264.311L266.948 298.893L205.456 264.311Z" fill="#7BE7FF" stroke="#7BE7FF"/>
<path d="M253.414 345.486L266.852 321.84L281.409 345.486V363.503L327.322 390.528V423.184L281.409 395.03V438.947H253.414V395.03L208.621 423.184V390.528L253.414 363.503V345.486Z" fill="#7BE7FF" stroke="#7BE7FF"/>
<path d="M235.034 230.004L188.002 203.15L174.564 224.409L207.039 243.431V265.809L174.564 246.787L147.689 262.452L207.039 297.138V322.872L252.951 346.369L266.389 322.872L235.034 304.97V230.004Z" fill="#7BE7FF" stroke="#7BE7FF"/>
<path d="M298.535 230.004L345.567 203.15L359.005 224.409L326.53 243.431V265.809L359.005 246.787L385.882 262.452L326.53 297.138V322.872L280.618 346.369L267.18 322.872L298.535 304.97V230.004Z" fill="#7BE7FF" stroke="#7BE7FF"/>
<path d="M206.248 316.301H227.614V355.073H203.478L206.248 316.301Z" fill="#7BE7FF"/>
<path d="M327.322 313.927H305.956V352.699H327.322V313.927Z" fill="#7BE7FF"/>
</svg>
